<svg preserveAspectRatio="none" width="100%" height="100%" overflow="visible" style="display: block;" viewBox="0 0 108.521 78" fill="none" xmlns="http://www.w3.org/2000/svg">
<g id="Group">
<path id="Vector" d="M108.349 23.9904L108.355 54.0184L108.018 54.9797C72.2173 55.0182 36.4105 55.0563 0.597695 55.0948L5.5118e-06 54.1347V23.8681L0.339267 22.9076C36.1381 22.9481 71.943 22.9886 107.754 23.0291L108.349 23.9908L108.349 23.9904Z" fill="#00247D"/>
<path id="Vector_2" d="M108.355 54.0186C108.356 58.2764 108.732 62.5803 108.341 67.0597C107.795 73.3028 102.728 77.996 96.3515 77.9964L12.1099 78C6.83501 78 2.61335 74.878 0.77529 70.1713C0.773299 70.1657 0.77091 70.1602 0.768919 70.1546C0.260026 68.85 5.5118e-06 67.4621 5.5118e-06 66.0623V54.1349L108.355 54.019V54.0186Z" fill="#CE142B"/>
<path id="Vector_3" d="M108.349 23.9898L0 23.8675V12.3842C0 9.21385 1.16591 6.14191 3.31576 3.80501C5.46721 1.46691 8.44132 0.00119068 12.1401 0.00119068L96.3141 0C102.685 0 107.778 4.66626 108.341 10.9491C108.741 15.4185 108.348 19.7339 108.349 23.9898Z" fill="#FECB00"/>
<path id="Vector_4" d="M51.9814 33.4621C49.5982 32.7116 50.4503 33.2057 48.7807 34.2043C48.8528 32.8287 48.6955 31.7285 47.2162 31.2237C48.7584 30.7319 49.3975 30.1187 49.5241 28.6486C50.3133 30.0449 51.0767 30.3489 52.6683 30.1584C51.8332 31.1983 51.3885 31.7845 51.9814 33.4621Z" fill="#EFF0F4"/>
<path id="Vector_5" d="M59.6761 34.0603C58.5261 34.1071 59.3914 32.4453 56.3304 33.4673C57.0818 32.1306 56.7601 31.2689 55.7722 30.1632C57.3829 30.3418 58.1255 30.0453 58.9283 28.6486C59.0346 30.139 59.6996 30.7688 61.247 31.1987C60.1547 31.7777 59.5439 32.0452 59.6761 34.0606V34.0603Z" fill="#EFF0F5"/>
<path id="Vector_6" d="M45.0519 35.451C44.2495 35.7296 43.6861 35.4268 43.231 35.6133C42.5576 35.8892 42.7802 36.6607 42.1168 37.3779C41.8094 35.9507 41.1536 35.0398 39.4624 34.995C40.7036 34.2576 41.1679 33.5697 40.9752 32.0068C41.7827 32.1258 41.9532 32.5882 42.3637 32.7775C42.9375 33.0423 43.3417 32.4041 44.2969 32.3255C43.743 33.5721 43.8418 34.6346 45.0519 35.451Z" fill="#F1F2F6"/>
<path id="Vector_7" d="M68.9982 34.9966C67.4337 35.0902 66.6198 35.7383 66.3852 37.3914L65.4654 35.7713C65.1763 35.2625 64.3437 35.7086 63.4713 35.4776C64.4743 34.6191 64.8506 33.5673 64.0522 32.3417L65.8146 32.8486C66.3494 33.0026 66.6015 32.1461 67.4544 31.9968C67.2884 33.5745 67.7542 34.2615 68.9982 34.9962V34.9966Z" fill="#F0F1F5"/>
<path id="Vector_8" d="M36.7485 42.3098C36.2336 41.8292 36.0632 41.2013 35.673 41.0036C35.0502 40.6885 34.57 41.297 33.6263 41.0414C34.6564 40.0408 34.8591 38.9926 33.897 37.6856C34.562 37.7662 35.055 38.0877 35.5149 38.0837C36.2667 38.0774 36.4698 37.3979 37.2434 36.9248L37.3577 38.5445C37.4099 39.2815 38.4368 39.0843 39.1257 39.8523C37.5421 39.9471 36.9512 40.9243 36.7485 42.3098Z" fill="#ECEDF3"/>
<path id="Vector_9" d="M74.7265 41.0469C73.8656 41.2763 73.4128 40.6885 72.7781 41.0056C72.3903 41.1993 72.2079 41.824 71.7094 42.3027C71.4868 40.9366 70.9126 39.9296 69.3389 39.8526C69.9645 39.1478 70.6311 39.32 70.993 38.7251C71.2284 38.3381 71.036 37.692 71.1778 36.9629C72.7686 37.8384 71.785 38.5433 74.5481 37.6725C73.8843 38.6822 73.5231 39.6205 74.7261 41.0473L74.7265 41.0469Z" fill="#ECEDF3"/>
<path id="Vector_10" d="M77.9425 48.8414C77.3878 48.6565 76.7746 47.779 76.1729 48.1473L74.7737 49.0034C74.6491 48.1 75.2985 47.5726 74.9115 46.9459C74.6964 46.5982 74.1374 46.3168 73.6695 45.9314C74.9378 45.7469 75.9273 45.215 76.21 43.6858C77.1668 45.4714 76.7973 45.3416 79.0885 45.5889C78.7955 46.2144 78.3666 46.3386 78.0449 46.6415C77.577 47.0816 78.064 47.4821 77.9429 48.8414H77.9425Z" fill="#F2F3F6"/>
<path id="Vector_11" d="M33.5887 48.9614C33.0013 48.8983 32.6927 48.2585 32.3037 48.147C31.6212 47.951 31.0761 48.8162 30.4788 48.5284C30.2299 48.1923 30.8284 47.3032 30.5795 46.8825C30.3075 46.4229 29.6983 46.2761 29.3598 45.6117C30.1634 45.3489 30.7818 45.5958 31.2835 45.2588C31.7446 44.9493 31.5993 44.2527 32.0122 43.5451L32.8851 45.2013C33.2068 45.8117 34.1521 45.6256 34.8 45.9054L33.7081 46.7329C33.1996 47.1183 33.5528 47.7581 33.5891 48.9614H33.5887Z" fill="#F2F3F6"/>
</g>
</svg>
